<?xml version="1.0" encoding="UTF-8"?>
<svg xmlns="http://www.w3.org/2000/svg" xmlns:xlink="http://www.w3.org/1999/xlink" width="120px" height="80px" viewBox="0 0 120 80" version="1.1">
<g id="surface1">
<path style=" stroke:none;fill-rule:nonzero;fill:rgb(12.54902%,31.37255%,50.588238%);fill-opacity:1;" d="M 37.773438 36.917969 C 34.484375 36.917969 32.746094 37.976562 32.746094 39.964844 L 32.746094 41.847656 C 32.746094 43.839844 34.484375 44.898438 37.773438 44.898438 C 41.0625 44.898438 42.800781 43.839844 42.800781 41.847656 L 42.800781 39.964844 C 42.800781 37.976562 41.0625 36.917969 37.773438 36.917969 Z M 35.882812 39.90625 C 35.882812 39.085938 36.449219 38.738281 37.773438 38.738281 C 39.097656 38.738281 39.664062 39.09375 39.664062 39.90625 L 39.664062 41.90625 C 39.664062 42.730469 39.097656 43.074219 37.773438 43.074219 C 36.449219 43.074219 35.882812 42.722656 35.882812 41.90625 Z M 51.324219 36.917969 C 50.074219 36.917969 48.386719 37.203125 46.960938 37.648438 L 46.785156 37.261719 C 46.734375 37.152344 46.582031 37.066406 46.40625 37.066406 L 44.667969 37.066406 C 44.453125 37.066406 44.265625 37.183594 44.265625 37.335938 L 44.265625 44.480469 C 44.265625 44.621094 44.441406 44.738281 44.667969 44.738281 L 47.011719 44.738281 C 47.226562 44.738281 47.414062 44.621094 47.414062 44.480469 L 47.414062 39.539062 C 48.257812 39.253906 49.445312 38.957031 50.164062 38.957031 C 50.691406 38.957031 50.882812 39.09375 50.882812 39.4375 L 50.882812 44.488281 C 50.882812 44.628906 51.058594 44.746094 51.285156 44.746094 L 53.628906 44.746094 C 53.84375 44.746094 54.03125 44.628906 54.03125 44.488281 L 54.03125 39.234375 C 54.019531 37.699219 53.113281 36.917969 51.324219 36.917969 Z M 62.476562 34.109375 C 61.847656 34 61.117188 33.941406 60.433594 33.941406 C 57.925781 33.941406 56.703125 34.730469 56.703125 36.363281 L 56.703125 37.285156 L 55.40625 37.285156 C 55.191406 37.285156 55.003906 37.402344 55.003906 37.554688 L 55.003906 38.738281 C 55.003906 38.882812 55.179688 39 55.40625 39 L 56.703125 39 L 56.703125 44.480469 C 56.703125 44.621094 56.878906 44.738281 57.09375 44.738281 L 59.4375 44.738281 C 59.652344 44.738281 59.828125 44.621094 59.828125 44.480469 L 59.828125 39 L 62.136719 39 C 62.339844 39 62.515625 38.890625 62.527344 38.757812 L 62.527344 37.570312 C 62.527344 37.488281 62.5 37.429688 62.425781 37.371094 C 62.351562 37.320312 62.25 37.285156 62.136719 37.285156 L 59.828125 37.285156 L 59.828125 36.460938 C 59.828125 35.890625 59.992188 35.691406 60.925781 35.691406 C 61.214844 35.691406 61.644531 35.722656 62.0625 35.765625 C 62.160156 35.773438 62.273438 35.757812 62.363281 35.714844 C 62.453125 35.671875 62.5 35.605469 62.527344 35.539062 L 62.765625 34.402344 C 62.792969 34.269531 62.664062 34.144531 62.476562 34.109375 Z M 66.710938 34.144531 L 64.367188 34.144531 C 64.152344 34.144531 63.964844 34.261719 63.964844 34.414062 L 63.964844 44.488281 C 63.964844 44.628906 64.140625 44.746094 64.367188 44.746094 L 66.710938 44.746094 C 66.925781 44.746094 67.113281 44.628906 67.113281 44.488281 L 67.113281 34.414062 C 67.113281 34.269531 66.925781 34.144531 66.710938 34.144531 Z M 78.195312 37.074219 L 75.847656 37.074219 C 75.636719 37.074219 75.445312 37.195312 75.445312 37.34375 L 75.445312 42.292969 C 74.601562 42.578125 73.417969 42.875 72.699219 42.875 C 72.167969 42.875 71.980469 42.738281 71.980469 42.394531 L 71.980469 37.335938 C 71.980469 37.195312 71.804688 37.066406 71.578125 37.066406 L 69.230469 37.066406 C 69.019531 37.066406 68.828125 37.183594 68.828125 37.335938 L 68.828125 42.578125 C 68.828125 44.117188 69.738281 44.898438 71.527344 44.898438 C 72.773438 44.898438 74.460938 44.613281 75.886719 44.167969 L 76.0625 44.554688 C 76.113281 44.664062 76.265625 44.746094 76.441406 44.746094 L 78.179688 44.746094 C 78.394531 44.746094 78.585938 44.628906 78.585938 44.488281 L 78.585938 37.34375 C 78.597656 37.195312 78.421875 37.074219 78.195312 37.074219 Z M 84.761719 36.917969 C 81.621094 36.917969 79.957031 37.957031 79.957031 39.933594 L 79.957031 41.90625 C 79.957031 43.949219 81.507812 44.898438 84.847656 44.898438 C 86.210938 44.898438 87.660156 44.738281 88.832031 44.460938 C 89.019531 44.417969 89.121094 44.285156 89.082031 44.160156 L 88.730469 43.042969 C 88.703125 42.964844 88.640625 42.90625 88.554688 42.867188 C 88.464844 42.824219 88.339844 42.816406 88.238281 42.839844 C 87.167969 43.042969 86.132812 43.140625 85.101562 43.140625 C 83.386719 43.140625 83.097656 42.773438 83.097656 42 L 83.097656 41.730469 L 88.917969 41.730469 C 89.132812 41.730469 89.324219 41.613281 89.324219 41.46875 L 89.324219 40.035156 C 89.308594 37.90625 87.875 36.917969 84.761719 36.917969 Z M 83.097656 40.007812 L 83.097656 39.757812 C 83.097656 39.015625 83.636719 38.679688 84.785156 38.679688 C 86.058594 38.679688 86.308594 39.09375 86.308594 39.757812 L 86.308594 40.007812 Z M 97.792969 36.917969 C 96.542969 36.917969 94.855469 37.203125 93.429688 37.648438 L 93.253906 37.261719 C 93.203125 37.152344 93.054688 37.066406 92.875 37.066406 L 91.136719 37.066406 C 90.921875 37.066406 90.734375 37.183594 90.734375 37.335938 L 90.734375 44.480469 C 90.734375 44.621094 90.910156 44.738281 91.136719 44.738281 L 93.480469 44.738281 C 93.695312 44.738281 93.886719 44.621094 93.886719 44.480469 L 93.886719 39.539062 C 94.730469 39.253906 95.914062 38.957031 96.632812 38.957031 C 97.160156 38.957031 97.351562 39.09375 97.351562 39.4375 L 97.351562 44.488281 C 97.351562 44.628906 97.527344 44.746094 97.753906 44.746094 L 100.097656 44.746094 C 100.3125 44.746094 100.503906 44.628906 100.503906 44.488281 L 100.503906 39.234375 C 100.476562 37.699219 99.570312 36.917969 97.792969 36.917969 Z M 109.515625 43.125 C 109.5 43.050781 109.4375 42.992188 109.351562 42.949219 C 109.261719 42.90625 109.148438 42.890625 109.035156 42.90625 C 108.367188 43.007812 107.660156 43.066406 106.992188 43.066406 C 105.503906 43.066406 105.078125 42.816406 105.078125 41.941406 L 105.078125 39.875 C 105.078125 39 105.503906 38.746094 106.992188 38.746094 C 107.394531 38.746094 108.277344 38.789062 109.035156 38.90625 C 109.148438 38.925781 109.261719 38.90625 109.351562 38.867188 C 109.4375 38.824219 109.5 38.757812 109.515625 38.6875 L 109.789062 37.453125 C 109.816406 37.320312 109.703125 37.203125 109.515625 37.160156 C 108.605469 36.984375 107.558594 36.917969 106.929688 36.917969 C 103.386719 36.917969 101.9375 37.78125 101.9375 39.890625 L 101.9375 41.925781 C 101.9375 44.03125 103.386719 44.898438 106.929688 44.898438 C 107.785156 44.898438 108.78125 44.804688 109.527344 44.65625 C 109.714844 44.613281 109.828125 44.496094 109.804688 44.359375 Z M 115.449219 36.917969 C 112.3125 36.917969 110.648438 37.957031 110.648438 39.933594 L 110.648438 41.90625 C 110.648438 43.949219 112.199219 44.898438 115.539062 44.898438 C 116.898438 44.898438 118.347656 44.738281 119.519531 44.460938 C 119.710938 44.417969 119.8125 44.285156 119.773438 44.160156 L 119.421875 43.042969 C 119.394531 42.964844 119.332031 42.90625 119.242188 42.867188 C 119.15625 42.824219 119.03125 42.816406 118.929688 42.839844 C 117.855469 43.042969 116.824219 43.140625 115.789062 43.140625 C 114.078125 43.140625 113.785156 42.773438 113.785156 42 L 113.785156 41.730469 L 119.609375 41.730469 C 119.824219 41.730469 120.011719 41.613281 120.011719 41.46875 L 120.011719 40.035156 C 120 37.90625 118.5625 36.917969 115.449219 36.917969 Z M 113.785156 40.007812 L 113.785156 39.757812 C 113.785156 39.015625 114.328125 38.679688 115.476562 38.679688 C 116.75 38.679688 117 39.09375 117 39.757812 L 117 40.007812 Z M 27.765625 36.167969 C 28.710938 36.167969 30.007812 36.253906 31.246094 36.394531 C 31.34375 36.402344 31.457031 36.386719 31.546875 36.34375 C 31.636719 36.304688 31.6875 36.234375 31.710938 36.167969 L 31.976562 34.789062 C 32 34.65625 31.875 34.53125 31.671875 34.496094 C 30.425781 34.292969 29.015625 34.183594 27.679688 34.183594 C 23.960938 34.183594 22.070312 35.21875 22.070312 37.253906 L 22.070312 41.839844 C 22.070312 43.875 23.960938 44.90625 27.679688 44.90625 C 29.015625 44.90625 30.425781 44.796875 31.671875 44.597656 C 31.875 44.5625 32 44.4375 31.976562 44.300781 L 31.710938 42.925781 C 31.699219 42.847656 31.636719 42.789062 31.546875 42.746094 C 31.457031 42.707031 31.34375 42.6875 31.246094 42.695312 C 30.007812 42.839844 28.710938 42.925781 27.765625 42.925781 C 25.925781 42.925781 25.296875 42.5625 25.296875 41.496094 L 25.296875 37.605469 C 25.296875 36.53125 25.925781 36.167969 27.765625 36.167969 Z M 27.765625 36.167969 "/>
<path style=" stroke:none;fill-rule:nonzero;fill:rgb(12.54902%,31.37255%,50.588238%);fill-opacity:1;" d="M 14.316406 42.066406 C 14.066406 41.730469 13.761719 41.394531 13.410156 41.050781 C 13.160156 40.804688 12.894531 40.5625 12.605469 40.328125 C 12.492188 40.234375 12.539062 40.117188 12.628906 40.058594 L 12.894531 39.882812 C 14.105469 39.058594 15.351562 38.210938 16.308594 37.292969 C 17.332031 36.320312 17.898438 35.394531 18.035156 34.4375 C 18.046875 34.34375 17.984375 34.246094 17.871094 34.183594 C 17.796875 34.144531 17.707031 34.125 17.605469 34.125 C 17.558594 34.125 17.507812 34.136719 17.457031 34.144531 C 16.523438 34.378906 15.589844 34.5625 14.722656 34.691406 C 14.542969 34.714844 14.40625 34.808594 14.34375 34.90625 C 13.710938 36.050781 12.113281 37.144531 10.4375 38.285156 C 10.371094 38.328125 10.273438 38.386719 10.121094 38.386719 C 9.96875 38.386719 9.867188 38.335938 9.804688 38.285156 C 8.128906 37.144531 6.527344 36.058594 5.898438 34.90625 C 5.835938 34.808594 5.695312 34.714844 5.519531 34.691406 C 4.664062 34.554688 3.71875 34.363281 2.785156 34.125 C 2.734375 34.109375 2.683594 34.109375 2.632812 34.109375 C 2.546875 34.109375 2.445312 34.125 2.371094 34.167969 C 2.257812 34.226562 2.191406 34.328125 2.207031 34.421875 C 2.34375 35.371094 2.910156 36.3125 3.933594 37.285156 C 4.890625 38.203125 6.136719 39.050781 7.347656 39.875 C 9.578125 41.386719 11.671875 42.816406 11.859375 44.46875 C 11.875 44.621094 12.0625 44.738281 12.289062 44.738281 L 14.898438 44.738281 C 15.011719 44.738281 15.125 44.707031 15.210938 44.648438 C 15.289062 44.585938 15.339844 44.511719 15.324219 44.4375 C 15.300781 44.125 15.238281 43.816406 15.125 43.496094 L 15.125 43.46875 C 15.125 43.402344 15.199219 43.351562 15.300781 43.351562 L 15.324219 43.351562 C 17.457031 43.5625 18.804688 43.890625 18.816406 44.261719 C 18.816406 44.605469 17.605469 45.125 15.628906 45.511719 C 15.453125 45.546875 15.324219 45.65625 15.324219 45.773438 C 15.324219 45.921875 15.515625 46.050781 15.742188 46.050781 C 15.78125 46.050781 15.804688 46.050781 15.832031 46.042969 C 18.476562 45.628906 20.242188 44.949219 20.242188 44.167969 C 20.230469 43.261719 17.859375 42.445312 14.316406 42.066406 Z M 7.308594 41.175781 C 7.257812 41.144531 7.144531 41.09375 7.007812 41.09375 C 6.820312 41.09375 6.691406 41.175781 6.65625 41.21875 C 6.363281 41.503906 6.125 41.789062 5.910156 42.074219 C 2.371094 42.445312 0 43.269531 0 44.183594 C 0 44.957031 1.738281 45.644531 4.398438 46.058594 C 4.425781 46.066406 4.460938 46.066406 4.5 46.066406 C 4.726562 46.066406 4.914062 45.941406 4.914062 45.789062 C 4.914062 45.664062 4.789062 45.5625 4.613281 45.527344 C 2.648438 45.140625 1.4375 44.621094 1.4375 44.277344 C 1.4375 43.90625 2.785156 43.578125 4.914062 43.371094 L 4.941406 43.371094 C 5.042969 43.371094 5.117188 43.417969 5.117188 43.488281 L 5.117188 43.511719 C 5.003906 43.824219 4.941406 44.132812 4.914062 44.445312 C 4.914062 44.519531 4.953125 44.605469 5.027344 44.65625 C 5.105469 44.714844 5.21875 44.746094 5.34375 44.746094 L 7.941406 44.746094 C 8.167969 44.746094 8.355469 44.628906 8.367188 44.480469 C 8.433594 43.964844 8.660156 43.460938 9.101562 42.925781 C 9.25 42.738281 9.136719 42.5625 9.050781 42.488281 C 8.621094 42.117188 8.089844 41.714844 7.308594 41.175781 Z M 7.308594 41.175781 "/>
<path style=" stroke:none;fill-rule:nonzero;fill:rgb(12.54902%,31.37255%,50.588238%);fill-opacity:1;" d="M 9.816406 36.867188 C 9.917969 36.933594 10.03125 36.941406 10.121094 36.941406 C 10.195312 36.941406 10.324219 36.933594 10.421875 36.867188 C 11.34375 36.269531 11.835938 35.570312 11.949219 35.378906 C 11.960938 35.351562 11.984375 35.320312 11.984375 35.269531 C 11.984375 35.117188 11.796875 35 11.59375 35 C 11.429688 35 10.953125 35.035156 10.132812 35.035156 C 9.3125 35.035156 8.835938 35 8.671875 35 C 8.46875 35 8.28125 35.109375 8.28125 35.269531 C 8.28125 35.3125 8.292969 35.34375 8.320312 35.378906 C 8.394531 35.570312 8.898438 36.269531 9.816406 36.867188 Z M 9.816406 36.867188 "/>
</g>
</svg>
