<svg xmlns="http://www.w3.org/2000/svg" xmlns:xlink="http://www.w3.org/1999/xlink" width="800" viewBox="0 0 600 599.999999" height="800" preserveAspectRatio="xMidYMid meet"><defs><clipPath id="1b319edc40"><path d="M 22 224.332031 L 172 224.332031 L 172 375.832031 L 22 375.832031 Z M 22 224.332031 " clip-rule="nonzero"></path></clipPath></defs><path fill="#000000" d="M 194.738281 297.167969 C 194.738281 321.9375 210.628906 339.207031 232.644531 339.207031 C 254.660156 339.207031 270.546875 321.9375 270.546875 297.167969 C 270.546875 272.394531 254.660156 255.125 232.644531 255.125 C 210.628906 255.125 194.738281 272.394531 194.738281 297.167969 Z M 256.019531 297.167969 C 256.019531 314.890625 246.375 326.367188 232.644531 326.367188 C 218.910156 326.367188 209.265625 314.890625 209.265625 297.167969 C 209.265625 279.441406 218.910156 267.964844 232.644531 267.964844 C 246.375 267.964844 256.019531 279.441406 256.019531 297.167969 Z M 256.019531 297.167969 " fill-opacity="1" fill-rule="nonzero"></path><path fill="#000000" d="M 311.453125 339.207031 C 328.132812 339.207031 337.667969 325.117188 337.667969 308.1875 C 337.667969 291.257812 328.132812 277.167969 311.453125 277.167969 C 303.734375 277.167969 298.0625 280.234375 294.316406 284.667969 L 294.316406 278.304688 L 280.699219 278.304688 L 280.699219 358.410156 L 294.316406 358.410156 L 294.316406 331.707031 C 298.0625 336.140625 303.734375 339.207031 311.453125 339.207031 Z M 293.976562 306.484375 C 293.976562 295.234375 300.332031 289.097656 308.730469 289.097656 C 318.601562 289.097656 323.9375 296.824219 323.9375 308.1875 C 323.9375 319.550781 318.601562 327.277344 308.730469 327.277344 C 300.332031 327.277344 293.976562 321.027344 293.976562 310.007812 Z M 293.976562 306.484375 " fill-opacity="1" fill-rule="nonzero"></path><path fill="#000000" d="M 374.519531 339.207031 C 386.4375 339.207031 395.855469 332.957031 400.054688 322.503906 L 388.367188 318.074219 C 386.550781 324.210938 381.214844 327.617188 374.519531 327.617188 C 365.78125 327.617188 359.65625 321.367188 358.632812 311.140625 L 400.394531 311.140625 L 400.394531 306.597656 C 400.394531 290.234375 391.203125 277.167969 373.953125 277.167969 C 356.703125 277.167969 345.582031 290.691406 345.582031 308.1875 C 345.582031 326.59375 357.5 339.207031 374.519531 339.207031 Z M 373.839844 288.644531 C 382.464844 288.644531 386.550781 294.324219 386.664062 300.914062 L 359.3125 300.914062 C 361.355469 292.847656 366.804688 288.644531 373.839844 288.644531 Z M 373.839844 288.644531 " fill-opacity="1" fill-rule="nonzero"></path><path fill="#000000" d="M 410.613281 337.957031 L 424.230469 337.957031 L 424.230469 302.960938 C 424.230469 294.4375 430.472656 289.894531 436.601562 289.894531 C 444.089844 289.894531 447.042969 295.234375 447.042969 302.621094 L 447.042969 337.957031 L 460.660156 337.957031 L 460.660156 298.644531 C 460.660156 285.804688 453.171875 277.167969 440.6875 277.167969 C 432.96875 277.167969 427.636719 280.691406 424.230469 284.667969 L 424.230469 278.304688 L 410.613281 278.304688 Z M 410.613281 337.957031 " fill-opacity="1" fill-rule="nonzero"></path><path fill="#000000" d="M 500.542969 256.375 L 469.675781 337.957031 L 484.089844 337.957031 L 491.011719 319.324219 L 526.191406 319.324219 L 533.226562 337.957031 L 547.867188 337.957031 L 517 256.375 Z M 508.488281 272.507812 L 521.425781 306.597656 L 495.777344 306.597656 Z M 508.488281 272.507812 " fill-opacity="1" fill-rule="nonzero"></path><path fill="#000000" d="M 571.246094 256.613281 L 556.71875 256.613281 L 556.71875 338.195312 L 571.246094 338.195312 Z M 571.246094 256.613281 " fill-opacity="1" fill-rule="nonzero"></path><g clip-path="url(#1b319edc40)"><path fill="#000000" d="M 161.460938 286.339844 C 164.894531 276.023438 163.710938 264.722656 158.222656 255.339844 C 149.964844 240.945312 133.367188 233.539062 117.160156 237.027344 C 109.949219 228.890625 99.589844 224.265625 88.726562 224.332031 C 72.15625 224.292969 57.457031 234.976562 52.359375 250.761719 C 41.714844 252.941406 32.527344 259.613281 27.152344 269.066406 C 18.835938 283.421875 20.730469 301.515625 31.84375 313.828125 C 28.410156 324.144531 29.59375 335.445312 35.082031 344.828125 C 43.339844 359.21875 59.933594 366.625 76.144531 363.140625 C 83.351562 371.273438 93.714844 375.898438 104.578125 375.828125 C 121.15625 375.871094 135.859375 365.179688 140.957031 349.382812 C 151.601562 347.199219 160.789062 340.527344 166.164062 331.074219 C 174.472656 316.71875 172.570312 298.636719 161.464844 286.328125 Z M 104.585938 365.929688 C 97.953125 365.9375 91.527344 363.613281 86.433594 359.355469 C 86.664062 359.234375 87.066406 359.011719 87.328125 358.851562 L 117.457031 341.429688 C 119 340.550781 119.945312 338.910156 119.933594 337.132812 L 119.933594 294.605469 L 132.667969 301.96875 C 132.804688 302.035156 132.894531 302.164062 132.914062 302.316406 L 132.914062 337.535156 C 132.894531 353.199219 120.226562 365.894531 104.585938 365.929688 Z M 43.664062 339.875 C 40.339844 334.128906 39.144531 327.390625 40.285156 320.851562 C 40.503906 320.984375 40.898438 321.226562 41.175781 321.386719 L 71.308594 338.808594 C 72.835938 339.703125 74.726562 339.703125 76.257812 338.808594 L 113.039062 317.542969 L 113.039062 332.265625 C 113.050781 332.417969 112.980469 332.566406 112.859375 332.660156 L 82.40625 350.265625 C 68.839844 358.089844 51.511719 353.4375 43.667969 339.875 Z M 35.734375 274.023438 C 39.042969 268.269531 44.269531 263.863281 50.492188 261.578125 C 50.492188 261.839844 50.476562 262.296875 50.476562 262.621094 L 50.476562 297.46875 C 50.46875 299.238281 51.414062 300.882812 52.949219 301.757812 L 89.734375 323.019531 L 77 330.382812 C 76.871094 330.46875 76.710938 330.480469 76.570312 330.421875 L 46.109375 312.800781 C 32.570312 304.949219 27.929688 287.609375 35.730469 274.03125 Z M 140.355469 298.402344 L 103.574219 277.136719 L 116.308594 269.777344 C 116.4375 269.691406 116.597656 269.679688 116.738281 269.738281 L 147.199219 287.347656 C 160.761719 295.191406 165.410156 312.5625 157.574219 326.140625 C 154.257812 331.886719 149.039062 336.292969 142.820312 338.582031 L 142.820312 302.691406 C 142.835938 300.921875 141.894531 299.28125 140.363281 298.402344 Z M 153.03125 279.304688 C 152.808594 279.167969 152.414062 278.929688 152.136719 278.769531 L 122.003906 261.347656 C 120.480469 260.453125 118.585938 260.453125 117.054688 261.347656 L 80.273438 282.613281 L 80.273438 267.890625 C 80.261719 267.738281 80.332031 267.589844 80.453125 267.496094 L 110.90625 249.902344 C 124.472656 242.066406 141.816406 246.730469 149.640625 260.320312 C 152.945312 266.058594 154.140625 272.773438 153.019531 279.304688 Z M 73.351562 305.546875 L 60.609375 298.183594 C 60.472656 298.117188 60.382812 297.984375 60.367188 297.832031 L 60.367188 262.613281 C 60.375 246.933594 73.082031 234.226562 88.742188 234.238281 C 95.367188 234.238281 101.777344 236.566406 106.871094 240.808594 C 106.636719 240.929688 106.242188 241.152344 105.976562 241.316406 L 75.847656 258.738281 C 74.304688 259.613281 73.359375 261.25 73.367188 263.027344 L 73.351562 305.535156 Z M 80.265625 290.613281 L 96.652344 281.140625 L 113.035156 290.609375 L 113.035156 309.550781 L 96.652344 319.019531 L 80.265625 309.550781 Z M 80.265625 290.613281 " fill-opacity="1" fill-rule="nonzero"></path></g></svg>