<?xml version="1.0" encoding="UTF-8"?>
<svg xmlns="http://www.w3.org/2000/svg" xmlns:xlink="http://www.w3.org/1999/xlink" width="120px" height="80px" viewBox="0 0 120 80" version="1.1">
<g id="surface1">
<path style=" stroke:none;fill-rule:nonzero;fill:rgb(1.176471%,21.176471%,23.921569%);fill-opacity:1;" d="M 79.914062 36.820312 C 85.046875 36.820312 87.957031 39.433594 87.695312 43.0625 L 75.589844 43.0625 C 75.9375 44.597656 78.035156 45.683594 80.351562 45.523438 C 81.9375 45.550781 83.476562 45.152344 84.617188 44.417969 L 86.734375 45.945312 C 85.074219 47.085938 82.757812 47.699219 80.375 47.625 C 75.207031 47.625 71.871094 45.328125 71.871094 42.222656 C 71.820312 40.785156 72.652344 39.398438 74.167969 38.378906 C 75.683594 37.363281 77.757812 36.796875 79.914062 36.820312 Z M 24.511719 36.820312 C 29.644531 36.820312 32.554688 39.433594 32.292969 43.0625 L 20.199219 43.0625 C 20.546875 44.59375 22.636719 45.675781 24.949219 45.523438 C 26.539062 45.550781 28.074219 45.152344 29.214844 44.417969 L 31.332031 45.945312 C 29.671875 47.085938 27.355469 47.699219 24.972656 47.625 C 19.804688 47.625 16.46875 45.328125 16.46875 42.222656 C 16.417969 40.785156 17.25 39.398438 18.765625 38.378906 C 20.28125 37.363281 22.355469 36.796875 24.511719 36.820312 Z M 102.675781 38.761719 L 99.910156 39.839844 C 99.132812 39.070312 97.816406 38.625 96.425781 38.65625 C 94.65625 38.65625 93.753906 39.234375 93.753906 39.902344 C 93.753906 40.566406 95.179688 40.851562 97.425781 41.183594 C 97.476562 41.191406 97.527344 41.199219 97.578125 41.207031 L 97.734375 41.230469 C 97.8125 41.242188 97.886719 41.253906 97.964844 41.265625 L 98.121094 41.289062 C 98.171875 41.300781 98.226562 41.308594 98.277344 41.316406 L 98.433594 41.34375 L 98.585938 41.371094 C 100.78125 41.761719 102.867188 42.441406 102.867188 44.273438 C 102.867188 45.707031 101.003906 47.632812 96.582031 47.617188 C 93.808594 47.75 91.160156 46.820312 89.761719 45.214844 L 92.746094 44.148438 C 93.546875 45.105469 95.078125 45.6875 96.726562 45.660156 C 98.589844 45.660156 99.550781 45.019531 99.550781 44.289062 C 99.550781 43.5625 97.746094 43.277344 95.785156 43.007812 C 95.734375 43 95.679688 42.992188 95.628906 42.984375 L 95.46875 42.960938 C 95.441406 42.957031 95.414062 42.953125 95.386719 42.949219 L 95.230469 42.925781 C 92.765625 42.546875 90.402344 41.90625 90.402344 39.917969 C 90.402344 38.277344 92.78125 36.75 96.414062 36.75 C 98.886719 36.648438 101.253906 37.410156 102.675781 38.761719 Z M 68.746094 32.265625 L 68.746094 47.410156 L 65.441406 47.410156 L 65.441406 45.984375 C 64.175781 47.03125 62.265625 47.632812 60.25 47.625 C 58.136719 47.613281 56.121094 47.03125 54.660156 46.015625 C 53.199219 44.996094 52.417969 43.628906 52.492188 42.222656 C 52.398438 40.808594 53.179688 39.433594 54.652344 38.414062 C 56.121094 37.394531 58.152344 36.824219 60.273438 36.828125 C 62.261719 36.816406 64.15625 37.398438 65.441406 38.414062 L 65.441406 32.265625 Z M 13.664062 37.074219 L 13.664062 39.101562 L 4.324219 45.4375 L 13.828125 45.4375 L 13.828125 47.433594 L 0 47.433594 L 0 45.414062 L 9.339844 39.078125 L 0.214844 39.078125 L 0.214844 37.074219 Z M 108.84375 32.265625 L 108.84375 42.183594 L 115.839844 37.019531 L 119.859375 37.019531 L 113.785156 41.460938 L 120 47.410156 L 116.28125 47.410156 L 111.457031 42.808594 L 108.84375 44.71875 L 108.84375 47.417969 L 105.539062 47.417969 L 105.539062 32.265625 Z M 42.675781 36.828125 C 46.597656 36.828125 49.902344 38.53125 49.902344 41.351562 L 49.902344 47.410156 L 46.503906 47.410156 L 46.503906 41.628906 C 46.503906 39.933594 45.265625 38.910156 42.773438 38.910156 C 41.679688 38.855469 40.609375 39.128906 39.851562 39.65625 C 39.089844 40.179688 38.71875 40.902344 38.839844 41.628906 L 38.839844 47.410156 L 35.476562 47.410156 L 35.476562 41.351562 C 35.476562 38.53125 38.757812 36.828125 42.675781 36.828125 Z M 60.699219 38.941406 C 57.984375 38.941406 55.78125 40.410156 55.78125 42.222656 C 55.78125 44.03125 57.984375 45.5 60.699219 45.5 C 63.417969 45.5 65.621094 44.03125 65.621094 42.222656 C 65.621094 40.410156 63.417969 38.941406 60.699219 38.941406 Z M 75.578125 41.328125 L 84.046875 41.335938 C 83.933594 39.90625 82.101562 38.8125 79.960938 38.886719 C 77.761719 38.800781 75.84375 39.871094 75.578125 41.328125 Z M 20.199219 41.328125 L 28.644531 41.335938 C 28.523438 39.910156 26.695312 38.820312 24.558594 38.894531 C 22.371094 38.816406 20.46875 39.878906 20.199219 41.328125 Z M 20.199219 41.328125 "/>
</g>
</svg>
