<?xml version="1.0" encoding="utf-8"?>
<!-- Generator: Adobe Illustrator 27.6.1, SVG Export Plug-In . SVG Version: 6.00 Build 0)  -->
<svg version="1.1" id="Layer_1" xmlns="http://www.w3.org/2000/svg" xmlns:xlink="http://www.w3.org/1999/xlink" x="0px" y="0px"
	 viewBox="0 0 2251.2 379.7" style="enable-background:new 0 0 2251.2 379.7;" xml:space="preserve">
<style type="text/css">
	.st0{fill:#EF4400;}
	.st1{fill:none;}
</style>
<g id="Layer_1_00000153672371372567236030000011299412945922217384_">
	<path class="st0" d="M274.4,98.5c-20.1-53.9-73-92.8-132.9-91.6C64.2,6.9,0.4,65.3,0,146.9v0.1c0.4,81.6,64.2,140,141.5,140
		c59.9,1.2,112.7-37.7,132.9-91.5c0.9-2.3-0.8-4.8-3.3-4.8h-38.5c-1.3,0-2.5,0.7-3.1,1.9c-16.5,32.5-49.7,55.4-88,55.6
		c-58.7,0-99.5-46.6-98.8-101.4C42.1,92.2,82.9,45.6,141.5,45.6c38.3,0.2,71.6,23.1,88.1,55.8c0.6,1.2,1.8,1.9,3.1,1.9h38.4
		C273.6,103.3,275.3,100.8,274.4,98.5 M480.5,175.9c0,41-23.9,72.6-68.9,72.6s-68.9-31.6-68.9-72.6s24-72.6,68.9-72.6
		S480.5,134.9,480.5,175.9 M522.3,175.9c0-60.4-44.5-111.1-110.8-111.1s-110.8,50.7-110.8,111.1S345.3,287,411.6,287
		S522.3,236.3,522.3,175.9 M540.6,106.8h37.6V69.1c0-0.4-0.3-0.8-0.8-0.8h-36.8c-0.4,0-0.8,0.4-0.8,0.8V106
		C539.8,106.4,540.1,106.8,540.6,106.8 M620,245V106.8h-41.9V245h-36.1c-2.2,0-4,1.8-4,4.1v30.4c0,2.2,1.8,4.1,4,4.1h122.8
		c2.2,0,4-1.8,4-4.1v-30.4c0-2.2-1.8-4.1-4-4.1H620L620,245z M738.7,141.2v-40.4c0-17.9-14.5-32.5-32.4-32.5H620v38.5h80.2v34.4
		c0,2.2,1.8,4.1,4.1,4.1h30.3C736.8,145.3,738.6,143.4,738.7,141.2 M942.4,155.7H808.9c6.7-30.8,29.5-52.5,66.8-52.5
		S935.7,125,942.4,155.7 M985.7,189.4c0.5-4.5,0.8-9,0.8-13.6c0-60.4-44.5-111.1-110.8-111.1s-110.8,50.7-110.8,111.1
		S809.4,287,875.7,287c45.2,0,80.3-23.6,98.1-57.9c1.2-2.3-0.5-5.1-3.1-5.1h-39.1c-1,0-2.1,0.5-2.7,1.3
		c-11.6,14.3-29.5,23.2-53.2,23.2c-38.7,0-61.8-23.4-67.5-56h174.1C984,192.5,985.5,191.2,985.7,189.4 M1237.6,251v-40.4
		c0-2.2-1.8-4.1-4-4.1h-30.3c-2.2,0-4,1.8-4,4.1V245H1095V42h42.6c2.2,0,4-1.8,4-4.1V7.6c0-2.2-1.8-4-4-4h-128c-2.2,0-4.1,1.8-4.1,4
		v30.4c0,2.3,1.8,4.1,4.1,4.1h42.6v203h-44.3c-2.2,0-4.1,1.8-4.1,4.1v30.4c0,2.2,1.8,4.1,4.1,4.1h197.3
		C1223.1,283.5,1237.6,268.9,1237.6,251 M1443,175.9c0,41-23.9,72.6-68.9,72.6s-68.9-31.6-68.9-72.6s23.9-72.6,68.9-72.6
		S1443,134.8,1443,175.9 M1484.9,175.9c0-60.4-44.5-111.1-110.8-111.1s-110.8,50.7-110.8,111.1S1307.8,287,1374.1,287
		S1484.9,236.3,1484.9,175.9 M1689.4,379.7v-38.5h-126.5v-34.4c0-2.2-1.8-4.1-4-4.1h-30.3c-2.2,0-4,1.8-4,4.1v40.4
		c0,18,14.5,32.5,32.4,32.5L1689.4,379.7L1689.4,379.7z M1689.4,175.9c0,41-23.9,72.6-68.9,72.6s-68.9-31.6-68.9-72.6
		s23.9-72.6,68.9-72.6S1689.4,134.9,1689.4,175.9 M1770.5,102.7V72.3c0-2.2-1.8-4.1-4.1-4.1h-40.3c-17.9,0-32.4,14.5-32.4,32.5v4.8
		c-14.6-24.8-39.5-40.8-76.8-40.8c-66.2,0-107.3,50.7-107.3,111.1S1550.7,287,1617,287c33.8,0,57.4-13.2,72.4-34.2v88.4h41.9V106.8
		h35.2C1768.7,106.8,1770.5,104.9,1770.5,102.7 M1903.1,28c0-15.5-10.9-28-27.9-28s-27.9,12.5-27.9,28s10.9,28,27.9,28
		S1903.1,43.5,1903.1,28 M1944.9,279.4V249c0-2.2-1.8-4.1-4-4.1h-44.8V100.7c0-17.9-14.5-32.5-32.4-32.5h-50.8c-2.2,0-4,1.8-4,4.1
		v30.4c0,2.2,1.8,4.1,4,4.1h41.3V245h-44.8c-2.2,0-4.1,1.8-4.1,4.1v30.4c0,2.2,1.8,4.1,4.1,4.1h131.5
		C1943.1,283.5,1944.9,281.7,1944.9,279.4 M2173.7,140.7c-13.2-43.7-51.1-76-103.9-76c-66.2,0-110.8,50.7-110.8,111.1
		S2003.5,287,2069.8,287c52.8,0,90.7-32.3,103.9-76c0.7-2.2-1-4.5-3.4-4.5h-35.8c-1.5,0-2.8,0.9-3.3,2.3
		c-9.2,23.8-29.6,39.7-61.5,39.7c-45,0-68.9-31.6-68.9-72.6s23.9-72.6,68.9-72.6c31.8,0,52.3,15.9,61.5,39.7
		c0.5,1.4,1.8,2.3,3.2,2.3h35.8C2172.7,145.2,2174.3,142.9,2173.7,140.7 M2230.5,95.9c0,2.4-1.7,3.9-4.9,3.9h-5.9V92h5.9
		C2228.6,92,2230.5,93.4,2230.5,95.9 M2238.4,114.4l-7.1-10.2c3.7-1.3,6.2-4.2,6.2-8.8c0-6.4-4.8-9.4-11.4-9.4h-13.2v28.4h6.8v-9
		h4.4l6.1,9H2238.4L2238.4,114.4z M2248.1,100.8c0,13.3-10.5,24.4-24,24.4s-24.1-11-24.1-24.2v-0.2c0-13.3,10.5-24.4,24.1-24.4
		s24,11,24,24.3V100.8z M2251.2,100.8v-0.2c0-14.9-11.9-27.2-27.1-27.2s-27.1,12.5-27.1,27.4v0.2c0,14.9,11.9,27.2,27.1,27.2
		S2251.2,115.7,2251.2,100.8"/>
</g>
<g id="safe_space">
	<g>
		<g>
			<path class="st1" d="M1607,418.2c45.1,0,69.1,31.6,69.1,72.6s-24,72.6-69.1,72.6s-69.1-31.6-69.1-72.6S1561.9,418.2,1607,418.2"
				/>
			<path class="st1" d="M1607,379.7c-66.4,0-111.1,50.7-111.1,111.1s44.7,111.1,111.1,111.1s111.1-50.7,111.1-111.1
				S1673.4,379.7,1607,379.7L1607,379.7z"/>
		</g>
		<g>
			<path class="st1" d="M1076.8-183.7c45.1,0,69.1,31.6,69.1,72.6s-24,72.6-69.1,72.6s-69.1-31.6-69.1-72.6
				S1031.7-183.7,1076.8-183.7"/>
			<path class="st1" d="M1076.8-222.2c-66.4,0-111.1,50.7-111.1,111.1S1010.3,0,1076.8,0s111.1-50.7,111.1-111.1
				S1143.2-222.2,1076.8-222.2L1076.8-222.2z"/>
		</g>
		<g>
			<path class="st1" d="M-111.1,88.1c45.1,0,69.1,31.6,69.1,72.6s-24,72.6-69.1,72.6s-69.1-31.6-69.1-72.6S-156.2,88.1-111.1,88.1"
				/>
			<path class="st1" d="M-111.1,49.6c-66.4,0-111.1,50.7-111.1,111.1s44.7,111.1,111.1,111.1S0,221.1,0,160.7S-44.7,49.6-111.1,49.6
				L-111.1,49.6L-111.1,49.6z"/>
		</g>
		<g>
			<path class="st1" d="M2285,88.1c45.1,0,69.1,31.6,69.1,72.6s-24,72.6-69.1,72.6s-69.1-31.6-69.1-72.6S2239.8,88.1,2285,88.1"/>
			<path class="st1" d="M2285,49.6c-66.4,0-111.1,50.7-111.1,111.1s44.7,111.1,111.1,111.1s111.1-50.7,111.1-111.1
				S2351.4,49.6,2285,49.6L2285,49.6L2285,49.6z"/>
		</g>
	</g>
</g>
</svg>
