<?xml version="1.0" standalone="no"?>
<!DOCTYPE svg PUBLIC "-//W3C//DTD SVG 20010904//EN"
 "http://www.w3.org/TR/2001/REC-SVG-20010904/DTD/svg10.dtd">
<svg version="1.0" xmlns="http://www.w3.org/2000/svg"
 width="3042.000000pt" height="869.000000pt" viewBox="0 0 3042.000000 869.000000"
 preserveAspectRatio="xMidYMid meet">

<g transform="translate(0.000000,869.000000) scale(0.100000,-0.100000)"
fill="#FFFFFF" stroke="none">
<path d="M12815 8544 c-16 -2 -73 -9 -125 -15 -533 -60 -1039 -385 -1354 -871
-339 -521 -392 -1245 -136 -1828 141 -321 413 -635 726 -840 291 -191 642
-289 1032 -290 531 -1 963 171 1340 535 331 318 522 699 573 1145 19 165 6
485 -24 635 -77 371 -237 670 -506 948 -333 344 -733 536 -1196 576 -114 10
-264 12 -330 5z m251 -694 c287 -25 526 -135 737 -339 259 -249 387 -543 387
-887 0 -355 -122 -640 -380 -888 -261 -250 -552 -360 -910 -342 -314 14 -552
117 -784 337 -209 198 -329 425 -370 701 -38 256 -2 496 108 723 66 135 154
253 273 366 225 214 470 316 808 338 11 0 70 -4 131 -9z"/>
<path d="M15624 8516 l-34 -34 0 -1832 0 -1832 34 -34 34 -34 276 0 276 0 32
29 33 29 5 1173 5 1173 150 -165 c82 -90 354 -389 605 -664 250 -275 594 -653
764 -840 171 -187 402 -440 514 -562 l203 -223 85 0 c81 0 87 1 115 29 l29 29
0 1827 c0 1325 -3 1832 -11 1848 -29 56 -31 57 -336 57 l-282 0 -28 -24 -28
-24 -5 -1133 -5 -1132 -1020 1084 c-560 596 -1064 1130 -1119 1187 l-100 102
-79 0 c-77 0 -80 -1 -113 -34z"/>
<path d="M21180 8539 c-443 -46 -824 -226 -1140 -538 -329 -327 -514 -699
-565 -1140 -68 -582 97 -1111 478 -1531 406 -448 964 -667 1582 -621 236 18
353 40 641 122 195 55 322 104 444 171 140 77 125 -24 125 820 l0 730 -28 24
-28 24 -558 0 -558 0 -21 -23 c-21 -23 -22 -30 -22 -274 0 -138 3 -259 6 -267
14 -36 45 -41 284 -46 l235 -5 3 -226 2 -227 -52 -20 c-518 -201 -1012 -139
-1365 170 -298 261 -449 612 -429 998 17 329 123 577 347 815 308 324 723 442
1166 330 151 -39 316 -124 454 -235 77 -63 99 -72 136 -59 25 8 233 216 356
356 77 88 66 124 -67 227 -254 198 -557 341 -839 395 -200 39 -400 49 -587 30z"/>
<path d="M24765 8540 c-30 -11 -36 -21 -100 -160 -31 -69 -154 -334 -272 -590
-119 -256 -268 -580 -333 -720 -64 -140 -283 -613 -485 -1050 -535 -1157 -535
-1156 -535 -1184 0 -14 11 -38 24 -53 l24 -28 269 -3 c166 -2 281 1 303 7 68
20 65 14 315 574 l48 107 801 0 801 0 105 -233 c171 -379 187 -408 240 -435
44 -22 51 -23 318 -20 l274 3 24 28 c13 15 24 40 24 54 0 14 -37 105 -81 202
-45 97 -274 597 -509 1111 -843 1842 -1028 2246 -1059 2312 -25 53 -38 68 -63
77 -36 13 -104 13 -133 1z m74 -1352 c7 -19 362 -801 490 -1081 17 -37 31 -70
31 -72 0 -3 -241 -5 -535 -5 -294 0 -535 3 -535 7 0 3 111 254 246 557 136
303 253 566 261 584 16 38 30 41 42 10z"/>
<path d="M27138 8534 c-15 -8 -32 -23 -38 -34 -16 -29 -14 -3661 2 -3695 23
-52 44 -55 337 -55 l271 0 32 29 33 29 5 1172 5 1172 190 -208 c313 -343 893
-981 991 -1089 50 -55 306 -336 569 -625 l478 -525 76 -3 c98 -4 117 2 141 41
20 31 20 60 20 1852 0 1699 -1 1822 -17 1845 -34 50 -32 49 -334 50 l-285 0
-27 -28 -27 -28 0 -1122 c0 -678 -4 -1122 -9 -1122 -11 0 -339 348 -1699 1797
l-527 561 -80 1 c-52 0 -89 -5 -107 -15z"/>
<path d="M2524 6308 c-1215 -1217 -2223 -2232 -2238 -2255 -24 -35 -29 -54
-29 -105 -1 -101 52 -182 147 -227 42 -19 52 -20 119 -10 70 10 721 146 1197
249 129 28 296 64 370 80 384 82 1638 352 1720 370 266 61 643 -28 929 -217
86 -58 213 -171 295 -265 156 -177 266 -401 322 -658 15 -68 19 -126 19 -290
-1 -186 -3 -215 -27 -316 -140 -590 -609 -1024 -1205 -1113 -107 -16 -582 -14
-748 4 -676 72 -1290 309 -1842 712 -183 133 -263 200 -501 421 -109 100 -112
102 -159 102 -68 0 -125 -43 -137 -103 -12 -58 82 -414 174 -657 28 -74 91
-216 140 -315 458 -925 1247 -1465 2320 -1589 686 -80 1401 50 2022 366 352
179 632 382 914 663 237 237 394 437 553 709 561 957 599 2203 97 3204 -479
955 -1367 1634 -2406 1841 -195 38 -281 49 -503 64 l-177 12 72 130 c79 144
602 1090 709 1283 37 67 67 122 65 122 -1 0 -996 -996 -2212 -2212z m136 -697
c67 -113 92 -198 98 -328 6 -137 -13 -231 -68 -341 -119 -234 -344 -372 -610
-372 -149 0 -307 50 -410 130 l-25 19 480 481 c264 264 483 480 487 480 4 0
26 -31 48 -69z"/>
<path d="M8635 8466 c-13 -13 -26 -39 -30 -57 -3 -19 -4 -836 -3 -1817 l3
-1784 33 -29 33 -29 1020 2 1021 3 24 28 24 28 0 259 0 259 -24 28 -24 28
-706 3 -706 2 0 1494 c0 821 -3 1507 -6 1525 -4 17 -18 42 -32 56 l-25 25
-289 0 -289 0 -24 -24z"/>
<path d="M15061 3938 c-196 -22 -402 -94 -542 -189 -127 -86 -259 -238 -333
-384 -164 -323 -136 -732 69 -1020 90 -126 292 -295 485 -407 115 -66 185
-100 401 -193 402 -173 589 -341 619 -556 19 -132 -16 -236 -111 -332 -73 -72
-173 -122 -282 -139 -208 -32 -494 63 -816 272 -191 123 -204 118 -343 -121
-123 -211 -128 -222 -128 -261 0 -42 22 -74 90 -133 139 -119 282 -195 519
-274 485 -162 985 -128 1337 90 108 67 271 225 341 330 227 344 212 817 -37
1148 -156 206 -468 411 -903 590 -358 148 -531 269 -608 428 -32 63 -34 74
-34 168 0 92 2 104 29 152 34 62 125 152 184 182 106 54 272 67 417 32 143
-35 336 -123 538 -246 94 -57 132 -59 181 -12 19 17 87 111 151 207 l117 174
-4 53 c-6 64 -17 78 -129 154 -348 234 -774 335 -1208 287z"/>
<path d="M20321 3939 c-433 -46 -822 -235 -1138 -555 -302 -307 -474 -650
-539 -1074 -21 -141 -21 -440 0 -580 63 -411 223 -739 506 -1034 368 -384 789
-573 1325 -593 554 -20 1027 161 1418 543 310 305 480 629 554 1059 12 73 17
158 17 315 0 230 -11 319 -60 514 -167 660 -758 1228 -1424 1371 -190 41 -458
55 -659 34z m484 -708 c360 -75 696 -347 861 -696 151 -319 146 -744 -13
-1060 -121 -240 -376 -479 -622 -586 -360 -155 -798 -123 -1129 83 -103 65
-275 225 -355 333 -68 91 -148 247 -177 344 -69 234 -67 540 7 761 59 178 187
377 330 510 210 197 425 297 713 334 72 9 297 -4 385 -23z"/>
<path d="M23208 3921 l-33 -29 -3 -1822 c-2 -1690 -1 -1824 15 -1857 28 -59
50 -63 334 -63 273 0 305 5 328 56 8 18 11 341 11 1192 l0 1167 43 -45 c23
-25 112 -122 197 -216 85 -94 239 -262 341 -375 555 -609 1070 -1174 1349
-1482 l315 -346 82 -1 c77 0 85 2 115 29 l33 29 0 1836 0 1836 -33 32 -32 33
-285 0 -285 0 -27 -28 -28 -27 -3 -1125 c-1 -619 -6 -1125 -10 -1124 -4 0
-173 178 -377 396 -558 595 -592 632 -675 718 -42 44 -323 342 -624 663 l-548
582 -84 0 c-78 0 -86 -2 -116 -29z"/>
<path d="M8645 3885 c-76 -41 -71 -63 116 -469 356 -775 504 -1097 662 -1441
91 -198 192 -418 225 -490 101 -220 333 -725 477 -1040 85 -186 147 -309 163
-324 23 -20 33 -23 94 -19 42 2 74 9 83 18 8 9 73 141 143 295 71 154 207 449
302 655 219 476 758 1646 1036 2249 125 269 214 476 214 493 0 37 -37 75 -81
83 -19 3 -163 5 -321 3 -272 -3 -289 -4 -307 -23 -11 -11 -230 -490 -486
-1065 -257 -575 -489 -1096 -517 -1157 -42 -95 -54 -113 -73 -113 -18 0 -28
15 -57 83 -20 45 -135 303 -256 572 -120 270 -335 751 -478 1069 -142 319
-268 591 -280 605 l-22 26 -304 3 c-260 2 -307 0 -333 -13z"/>
<path d="M12704 3890 c-12 -4 -31 -21 -43 -36 l-21 -27 0 -1803 0 -1804 29
-32 29 -33 270 -3 c223 -2 277 0 307 12 70 30 65 -108 65 1861 0 1536 -2 1780
-15 1811 -25 60 -49 64 -342 63 -142 0 -268 -4 -279 -9z"/>
<path d="M17284 3890 c-12 -4 -31 -21 -43 -36 l-21 -27 0 -1803 0 -1804 29
-32 29 -33 286 0 285 0 30 29 31 30 0 1811 0 1811 -31 30 -30 29 -272 2 c-150
1 -282 -2 -293 -7z"/>
</g>
</svg>
