<svg xmlns="http://www.w3.org/2000/svg" xmlns:xlink="http://www.w3.org/1999/xlink" xml:space="preserve" viewBox="0 0 400 56.7" width="150" height="21"><defs><path id="a" d="M81 45.8h1.4c.4 0 .1-.1-.7-.1-.8 0-1.1.1-.7.1" class="st1"/></defs><path fill="#4c64fc" fill-rule="evenodd" d="M174.2.3c-2.4.4-6.1 1.7-6.6 2.2 0 .1-.7.5-1.5 1.1-.8.5-1.6 1.2-1.9 1.5-.2.3-.8 1-1.3 1.5-1.2 1.3-2.1 3.2-3 6.2 0 .1-.1.3-.2.5-.2.5-.2 6.2 0 6.4.1.1.2.2.2.4 0 .1 0 .3.1.4.1.1.2.5.3 1 .6 2.6 3.2 5.9 5.9 7.4.7.4 1.3.8 1.3.9.3.4 4.3 1.9 6 2.3.4.1.8.2.8.3.1.1 1.7.5 5.6 1.4 2.5.5 3.9 1 5.2 1.6.6.3 1.5.7 1.8.9.4.2 1 .6 1.4 1s.8.6.8.6c.1-.1.1 0 0 .1s0 .4.2.7c.9 1.3 0 4.5-1.6 5.9-.5.4-2.3 1.4-2.5 1.3l-.2.2c-.5.8-9.5.8-9.5 0 0-.1-.1-.1-.2-.1-.1.1-.3 0-.3 0 0-.1-.4-.2-.9-.4-1.2-.3-4.1-1.7-4.7-2.3-.3-.3-.7-.6-1-.7-.5-.3-1.9-1.4-2.6-2-1.3-1.4-3.3-1.3-4.4.3-.4.5-1 1.2-1.4 1.6-3.4 3.5-3.2 5 .8 7.9.8.6 1.6 1.1 1.7 1.1.1 0 .2.1.2.1 0 .2 1.4 1.1 3.8 2.2 9.5 4.8 23.1 3.9 29-1.8 2-1.9 3.4-4.2 4.1-6.3.2-.6.4-1.3.5-1.5.6-1.4.6-7.8 0-8.2-.1 0-.3-.5-.4-1.1-1.2-4.2-5.2-7.7-10.8-9.6-.9-.3-1.7-.6-1.8-.7-.1-.1-.2-.1-.3 0-.1.1-.2 0-.2-.1-.1-.1-1.3-.5-2.7-.8-4.8-1.1-6.7-1.6-7.2-1.8-.3-.1-1-.4-1.5-.6-1.9-.7-3.1-1.4-3.6-2.2-.3-.4-.7-.9-.8-1.1-.4-.5-.4-3.2 0-3.6.2-.2.3-.4.3-.5 0-.4 1.3-1.7 2.3-2.2.5-.3 1-.5 1-.6.8-.9 7.7-.9 9.5 0 .2.1 1 .4 1.9.8.9.3 2 .9 2.6 1.2.5.3 1 .6 1.1.6.1 0 .2.1.2.1s.5.5 1.2 1c2.2 1.7 3.8 1.4 5.3-.9.5-.7 1.1-1.5 1.3-1.8 2.2-2.4 2.2-4.4 0-5.7-.5-.3-.8-.6-.8-.7 0-.1 0-.2-.1-.1s-.3-.1-.5-.3c-.4-.3-1.2-.8-3.1-1.8-.4-.2-.8-.4-.8-.5-.3-.3-3.3-1.4-5.4-1.9-3.5-1.1-9.6-1.4-12.6-.8M1.1 1c-1 .6-1-1.1-1 27.5v26l.3.5c.7 1 1.1 1.1 5 1.1s4.3-.1 5-1.2l.4-.6V36.7h10.6l.9 1.3c.5.7 1.1 1.7 1.5 2.1.4.4 1.1 1.4 1.6 2.1.5.8 1.3 1.8 1.7 2.3.4.5 1 1.3 1.2 1.7.3.4.6.9.7.9.2.2 1.3 1.5 1.3 1.6 0 .2 1.4 1.9 1.5 1.9.1 0 .1.1.1.2-.1.1 0 .2.1.2s.2.2.3.4c.3.8 3.1 4.2 3.7 4.5.9.4 9 .4 9.7-.1 1.6-1.1 1.4-2.8-.6-5.4-.4-.5-1.1-1.4-1.5-2.1-.4-.7-.9-1.2-.9-1.2-.1 0-.6-.6-1.1-1.4-.5-.8-1.2-1.6-1.4-1.9-.3-.3-.5-.5-.5-.6 0-.1-1.6-2.3-2.8-3.7-.4-.5-1-1.3-1.3-1.8s-.9-1.2-1.3-1.6c-.4-.4-.7-.8-.7-.9s-.1-.3-.3-.4c-.2-.3-.2-.3.5-.6 4.8-1.7 8.8-5.8 10.2-10.3 1.6-4.9.8-11.9-1.5-14.8-.3-.4-.7-1-.9-1.3-.3-.5-2.8-2.9-3.7-3.5-2.3-1.5-5.8-2.8-9.1-3.3C26 .5 1.8.5 1.1 1m209.8 0c-1.1.6-1.1.9-1.1 4.6 0 3.9 0 4.1 1 4.7.4.3.7.5.8.6 0 .1 3.5.1 7.7.1h7.7v21.7c0 20.9 0 21.7.3 22.2.6 1 1.1 1.1 4.9 1.1 3.8 0 4.2-.1 5-1l.5-.6V11h7.5c4.1 0 7.5-.1 7.5-.1 0-.1.3-.2.7-.4 1-.5 1.2-1 1.1-4.8 0-3.8-.1-4.2-1.3-4.7-.9-.5-41.5-.4-42.3 0m58.4 0c-1.3.6-1.2-1.6-1.1 27.5v26l.3.5c.7.9 1 1 4.7 1 3.8.1 4.4 0 5.1-.8l.5-.5V28.6c0-28 .1-26.7-.8-27.5l-.5-.4h-3.9c-3.1 0-3.8 0-4.3.3m29.4-.2c-.2 0-.6.3-.9.6l-.5.6v26.2c0 29.7-.1 27 1.4 27.5 1.1.4 7.7.3 8.3-.1 1.1-.7 1-.4 1.1-11.5V34h25.7l.6-.4c.8-.6 1-1.1 1-4.7 0-3.3-.1-3.7-.8-4.6-.6-.7-1-.7-13.9-.7h-12.5V11h14.3c7.9 0 14.3-.1 14.3-.1 0-.1.2-.2.5-.3 1-.4 1.2-.9 1.2-4.8 0-3.8-.1-4.1-.9-4.8l-.4-.3h-19c-10.6 0-19.3 0-19.5.1m49.5.3c-1.4 1.1-.8 4.3 1 5.8.1.1.8 1.1 1.5 2.1 3 4.5 3.6 5.3 3.7 5.4.2.1 1.2 1.6 1.2 1.7 0 .1 1.5 2.2 1.7 2.4l.3.3c0 .2 2.1 3.4 2.3 3.5.1 0 .6.8 1.2 1.8.6.9 1.3 1.9 1.5 2.1.2.3.4.5.4.6s.5.8 1.1 1.7c.6.9 1.4 2.1 1.9 2.7 1.5 2.3 1.8 2.7 2 2.8.2.1.2 2.1.2 10.2 0 11.2-.1 10.7 1.2 11.3.8.4 7.2.4 8 0 1.7-.8 1.6-.3 1.6-11.6v-9.8l.9-1.5c.5-.8 1-1.5 1.1-1.6s.8-1 1.5-2.1 1.7-2.5 2.2-3.2c.5-.7 1-1.5 1.2-1.8.1-.3.4-.6.5-.8.4-.4 1.1-1.3 1.3-1.9.1-.2.5-.8.9-1.2.4-.4.9-1.2 1.2-1.6.6-1 1.6-2.4 1.9-2.8.4-.5 1.4-1.9 1.9-2.7.3-.4.6-.9.7-1.1.4-.4 2.7-3.8 2.7-4 0-.1.1-.2.1-.2.1 0 1.9-2.4 1.9-2.6 0-.1.2-.3.4-.6.5-.7.5-2.1.1-2.9-.5-1-.8-1-5.4-1-4.9 0-5.3.1-6.1 1.7-.4.8-1.5 2.4-1.8 2.5-.1.1-.2.2-.2.3 0 .1-.4.7-.9 1.5-.5.7-.9 1.4-.9 1.5 0 .1-.1.2-.2.3-.2.1-.9 1.2-2.2 3.1-.3.5-.7 1.1-.9 1.2-.4.5-2.1 3-2.1 3.2 0 .1-.1.3-.3.4-.2.1-.8 1.1-1.5 2.1s-1.4 2.1-1.6 2.3c-.2.3-.4.5-.4.6s-.3.6-.7 1.1l-.7 1-.4-.4c-.2-.2-.6-.7-.9-1.2-.9-1.5-1.8-2.8-1.9-2.8-.1 0-.1-.1-.1-.2 0-.2-1.8-3-2.4-3.8-.2-.3-.9-1.3-1.5-2.2-.6-1-1.2-1.8-1.4-1.9-.1-.1-.2-.2-.2-.3 0-.1-2.1-3.5-2.3-3.7-.2-.1-1.3-1.8-1.3-1.9 0-.2-1-1.6-1.4-2.1-.2-.2-.4-.5-.4-.5 0-.3-.9-1.5-1.4-1.7-.4-.2-1.4-.2-5-.2h-4.5l-.3.7m-270.5.1c-1.9.2-5.2 1-5.3 1.2-.1.1-.3.2-.6.3-.8.2-4.6 2-4.9 2.3-.2.2-.4.3-.4.2s-.6.3-1.2.8c-.7.6-1.4 1-1.4 1-.1 0-.6.5-1.2 1.1-.6.6-1.2 1.2-1.4 1.3-.2.1-.8.8-1.3 1.5-.6.8-1.1 1.5-1.2 1.6-.3.2-2.1 3.3-2.5 4.2l-.5 1c-1.1 1.2-2.4 8.3-2.2 12.4.1 3.4 1.4 9.1 2.2 10 .1.1.6 1.1 1.2 2.1s1.2 2.2 1.4 2.4c.2.3.7.8 1 1.3.8 1.2 3.6 4 4.7 4.7.5.3.9.6.9.7.1.2 1.5 1.1 3.1 1.9.8.4 1.5.8 1.6.9 0 .1.6.3 1.4.6 7.3 2.8 17 2.4 23.3-1 .9-.5 1.9-1 2.3-1.2.4-.2 1-.7 1.4-1 .4-.4.9-.7 1-.7.1 0 2.6-2.3 5.4-5.2 2.9-2.8 5.2-5.2 5.3-5.2 0 0 2.6-2.5 5.6-5.5 7.1-7.2 7-6.5 3.1-10.4-1.3-1.3-2.7-2.6-3.1-2.8-.7-.3-1.6-.4-1.6-.2 0 .1-.2.2-.4.2-.5.1-1.9 1.4-10.5 10-12.1 11.9-12 11.9-15.4 13.1-2.5.8-7.3 1.4-7.9.9-.1-.1-.6-.2-1.1-.3-1.7-.2-4.7-1.4-6-2.4-1.8-1.3-3.3-2.6-3.3-2.8 0-.1-.1-.3-.3-.5-1.5-1.4-3.2-4.8-3.8-7.9-.7-3.6.4-9.9 2-11.6.2-.2.6-.8.8-1.1.4-.8 3.5-3.9 4.2-4.3.8-.4 2.2-1.2 2.3-1.3.5-.6 5-1.6 7.4-1.6 2.7 0 6.8.9 7.6 1.8.2.2.5.3 1.3.2 1.2-.1.9.1 4.8-3.8C98.6 7 98 5.4 93.1 3.4c-.7-.3-1.5-.6-1.8-.8-2.7-1.2-9.6-1.9-13.6-1.4m40.7-.1c-2.5.3-6.4 1.1-6.4 1.4 0 .1-.1.1-.2 0s-.3 0-.4.1c-.1.1-.7.4-1.4.6-1.2.4-3.8 1.8-4.2 2.2-.1.1-.7.6-1.4 1-1.2.8-4.4 3.9-12.6 12.3-1.8 1.9-4.3 4.4-5.4 5.5-2.3 2.5-2.4 2.6-2.4 3.8 0 .8.6 2.3 1 2.3.1 0 1 .9 2.1 1.9 2.1 2.1 2.4 2.2 3.5 2.2 1.3 0 .4.9 13.8-12.7 6.4-6.5 6.4-6.6 8.2-7.5.6-.3 1.3-.7 1.4-.8.6-.6 5.1-1.6 7.2-1.6 2.1 0 6.9 1.1 7.3 1.6 0 .1.8.5 1.7 1.1.9.5 1.9 1.2 2.2 1.6.3.4.9.9 1.2 1.2.3.3.9 1.1 1.4 1.8.4.6.8 1.2.9 1.3.6.4 1.9 4.4 2.1 6.8.4 3.3-.8 8.6-2.1 10-.1.1-.2.3-.1.5.1.1 0 .2-.1.1s-.2 0-.2 0c0 .1-.4.7-1 1.4-2.4 3.2-6.5 5.7-10 6.2-.5.1-.9.2-1 .2-.4.3-3 .4-4.1.1-2.3-.4-3.7-.8-5-1.4-2.6-1.1-2.9-1-6.2 2.2-3.8 3.7-3.8 5-.3 6.7.7.3 1.3.7 1.4.8.1.1.7.4 1.3.6 5.6 2.1 13.1 2.4 18.7.6.8-.2 1.5-.4 1.6-.5.5-.1 1.9-.8 1.9-.9 0-.1.1-.1.3-.1.2 0 .4-.1.6-.2.2-.1.9-.5 1.7-.9.7-.4 1.7-1 2-1.3.4-.3.9-.7 1.1-.9.7-.3 3.8-3.6 4.5-4.6.3-.5.7-1 .9-1.2.4-.4 2.3-3.8 2.3-4.2 0-.1.1-.3.1-.3.3 0 1.4-3.3 2-6.1.5-2.6.4-8.5-.2-11.3-.5-2.2-1.5-5.3-1.8-5.5-.1-.1-.4-.6-.7-1.2-.4-1-1.8-3.3-2-3.5-.3-.2-1.5-1.8-1.5-1.9 0-1.1-6.9-6.1-10.2-7.4-.9-.4-1.8-.7-1.9-.8-.2-.2-2.5-.8-4.3-1.1-1.1-.1-5.9-.3-7.3-.2M26.3 11.2c4.9.6 7.4 2.8 7.6 6.8.2 2.4-.7 4.5-2.3 5.7-.4.3-.8.6-.8.7 0 .2-1.2.8-2.4 1.2-1.8.6-3.4.7-10.6.7h-7V11h7c4 0 7.7.1 8.5.2" clip-rule="evenodd"/><use xlink:href="#a" class="st1"/><use xlink:href="#a" class="st1"/><use xlink:href="#a" class="st1"/><use xlink:href="#a" class="st1"/></svg>